<svg xmlns="http://www.w3.org/2000/svg" width="53.753" height="53.844" viewBox="0 0 53.753 53.844"><path d="M23.7,17.866c-3.739,0-5.84,1.933-5.84,5.882V64.461c0,3.694,1.89,5.628,5.625,5.628H64.37c3.736,0,5.628-1.838,5.628-5.628V23.749c0-3.853-1.892-5.882-5.745-5.882C64.253,17.866,23.688,17.854,23.7,17.866Z" transform="translate(-16.245 -16.245)" fill="#f34b0a"/><path d="M129.647,187.258h-9.478v2.991a2.636,2.636,0,1,1-5.268,0v-2.991h-2.8v-9.367a4.012,4.012,0,0,1,3.164-3.988l2.883-7.362a3.908,3.908,0,0,1,3.934-2.6H126.2v-1.922a1.021,1.021,0,0,1,1.1-1.159h4.746a1.021,1.021,0,0,1,1.1,1.159v1.922h4.072a3.908,3.908,0,0,1,3.934,2.6l2.883,7.362a4.013,4.013,0,0,1,3.166,3.988v9.367h-2.8v2.991a2.636,2.636,0,1,1-5.267,0v-2.991h-9.473Z" transform="translate(-101.959 -146.311)" fill="#fff"/><path d="M191.477,231.686H180.082l2.171-5.7c.271-.814.679-1.4,1.628-1.411h15.2c.95.009,1.357.6,1.628,1.411l2.171,5.7h-11.4Z" transform="translate(-163.794 -204.266)" fill="#f34b0a"/><path d="M148.673,339.478A2.483,2.483,0,1,1,151.106,337,2.458,2.458,0,0,1,148.673,339.478Z" transform="translate(-133.013 -304.257)" fill="#f34b0a"/><path fill="#f34b0a"/><path d="M414.556,339.478A2.483,2.483,0,1,0,412.123,337,2.458,2.458,0,0,0,414.556,339.478Z" transform="translate(-374.848 -304.257)" fill="#f34b0a"/><path fill="#f34b0a"/></svg>